<svg width="190" height="190" viewBox="0 0 500 500" xmlns="http://www.w3.org/2000/svg">
  <title>NumPy</title>
  <defs>
    <style>
      .a{fill:#4DABCF}
      .b{fill:#4D77CF}
    </style>
  </defs>
  <polygon class="a" points="220.93 127.14 151.77 92.23 75.87 130.11 146.9 165.78 220.93 127.14"/>
  <polygon class="a" points="252.63 143.14 325.14 179.74 249.91 217.52 178.77 181.79 252.63 143.14"/>
  <polygon class="a" points="349.47 92.76 423.96 130.11 357.34 163.57 284.68 126.92 349.47 92.76"/>
  <polygon class="a" points="317.41 76.67 250.35 43.05 184.01 76.15 253.11 111 317.41 76.67"/>
  <polygon class="a" points="264.98 365.44 264.98 456.95 346.22 416.41 346.13 324.86 264.98 365.44"/>
  <polygon class="a" points="346.1 292.91 346.01 202.32 264.98 242.6 264.98 333.22 346.1 292.91"/>
  <polygon class="a" points="443.63 275.93 443.63 367.8 374.34 402.38 374.29 310.93 443.63 275.93"/>
  <polygon class="a" points="443.63 243.81 443.63 153.79 374.21 188.3 374.27 279.07 443.63 243.81"/>
  <path class="b" d="M236.3 242.6l-54.72-27.51V334l-73.12-155.18c-.8-1.65-4.09-3.46-4.93-3.9L56.37 150.8v210.09l48.64 26V277.08s66.21 127.23 66.88 128.62c.67 1.39 7.32 14.8 14.42 19.51 9.46 6.26 50 30.64 50 30.64z"/>
</svg>
