<svg width="190" height="190" viewBox="0 0 110 140" xmlns="http://www.w3.org/2000/svg">
  <title>Python</title>
  <defs>
    <linearGradient id="blue" x1="0" y1="0" x2="1" y2="1">
      <stop offset="0" stop-color="#5a9fd4"/>
      <stop offset="1" stop-color="#306998"/>
    </linearGradient>
    <linearGradient id="yellow" x1="0" y1="0" x2="1" y2="1">
      <stop offset="0" stop-color="#ffd43b"/>
      <stop offset="1" stop-color="#ffe873"/>
    </linearGradient>
  </defs>
  <path fill="url(#blue)" d="M55 0c-15 0-27 4-27 14v12h27v4H28c-13 0-22 8-22 23s7 23 20 23h11V63c0-10 8-18 18-18h27c10 0 18-8 18-18V14C100 4 86 0 55 0z"/>
  <path fill="url(#yellow)" d="M83 30v12c0 10-8 18-18 18H38c-10 0-18 8-18 18v24c0 10 9 16 18 18 11 3 22 3 27 0 5-2 18-7 18-18V90H56v-4h27c13 0 18-9 20-23 2-14 2-21 0-23-2-10-7-18-20-18H83z"/>
</svg>
